HIERARCHY
ROOT Hips
{
	OFFSET 0.000000 0.000000 0.000000 
	CHANNELS 6 Xposition Yposition Zposition Zrotation Yrotation Xrotation
	JOINT LeftUpLeg
	{
		OFFSET 1.363060 -1.794630 0.839290 
		CHANNELS 3 Zrotation Yrotation Xrotation
		JOINT LeftLeg
		{
			OFFSET 2.448110 -6.726130 0.000000 
			CHANNELS 3 Zrotation Yrotation Xrotation
			JOINT LeftFoot
			{
				OFFSET 2.562200 -7.039590 0.000000 
				CHANNELS 3 Zrotation Yrotation Xrotation
				JOINT LeftToeBase
				{
					OFFSET 0.157640 -0.433110 2.322550 
					CHANNELS 3 Zrotation Yrotation Xrotation
					End Site
					{
						OFFSET 0.000000 0.000000 0.000000 
					}
				}
			}
		}
	}
	JOINT RightUpLeg
	{
		OFFSET -1.305520 -1.794630 0.839290 
		CHANNELS 3 Zrotation Yrotation Xrotation
		JOINT RightLeg
		{
			OFFSET -2.542530 -6.985550 0.000000 
			CHANNELS 3 Zrotation Yrotation Xrotation
			JOINT RightFoot
			{
				OFFSET -2.568260 -7.056230 0.000000 
				CHANNELS 3 Zrotation Yrotation Xrotation
				JOINT RightToeBase
				{
					OFFSET -0.164730 -0.452590 2.363150 
					CHANNELS 3 Zrotation Yrotation Xrotation
					End Site
					{
						OFFSET 0.000000 0.000000 0.000000 
					}
				}
			}
		}
	}
	JOINT Spine
	{
		OFFSET 0.028270 2.035590 -0.193380 
		CHANNELS 3 Zrotation Yrotation Xrotation
		JOINT Spine1
		{
			OFFSET 0.056720 2.048850 -0.042750 
			CHANNELS 3 Zrotation Yrotation Xrotation
			JOINT Neck1
			{
				OFFSET -0.054170 1.746240 0.172020 
				CHANNELS 3 Zrotation Yrotation Xrotation
				JOINT Head
				{
					OFFSET 0.104070 1.761360 -0.123970 
					CHANNELS 3 Zrotation Yrotation Xrotation
					End Site
					{
						OFFSET 0.000000 0.000000 0.000000 
					}
				}
			}
			JOINT LeftArm
			{
				OFFSET 3.362410 1.200890 -0.311210 
				CHANNELS 3 Zrotation Yrotation Xrotation
				JOINT LeftForeArm
				{
					OFFSET 4.983000 -0.000000 -0.000000 
					CHANNELS 3 Zrotation Yrotation Xrotation
					JOINT LeftHand
					{
						OFFSET 3.483560 -0.000000 -0.000000 
						CHANNELS 3 Zrotation Yrotation Xrotation
						JOINT LeftHandIndex1
						{
							OFFSET 0.715260 -0.000000 -0.000000 
							CHANNELS 3 Zrotation Yrotation Xrotation
							End Site
							{
								OFFSET 0.000000 0.000000 0.000000 
							}
						}
					}
				}
			}
			JOINT RightArm
			{
				OFFSET -3.136600 1.374050 -0.404650 
				CHANNELS 3 Zrotation Yrotation Xrotation
				JOINT RightForeArm
				{
					OFFSET -5.241900 -0.000000 -0.000000 
					CHANNELS 3 Zrotation Yrotation Xrotation
					JOINT RightHand
					{
						OFFSET -3.444170 -0.000000 -0.000000 
						CHANNELS 3 Zrotation Yrotation Xrotation
						JOINT RightHandIndex1
						{
							OFFSET -0.622530 -0.000000 -0.000000 
							CHANNELS 3 Zrotation Yrotation Xrotation
							End Site
							{
								OFFSET 0.000000 0.000000 0.000000 
							}
						}
					}
				}
			}
		}
	}
}
MOTION
Frames: 15
Frame Time: 0.041667
-3.176231 16.193705 -41.755756 -6.721209 -28.036050 7.965546 -8.842428 20.985749 -52.253101 10.531857 21.001517 55.298110 0.852919 2.793785 19.888464 0.001800 -0.270600 -0.743500 3.119608 -0.902781 -1.731832 -1.589108 -8.835247 29.693345 13.908383 -28.649227 -3.344443 -2.880300 10.498700 -30.607400 0.590609 4.703715 -2.849361 -0.283490 2.461815 -3.853486 5.487914 0.102530 11.110980 1.878300 0.213000 5.412000 -72.733662 -14.718991 32.384502 76.135183 -51.883263 -62.272966 -0.276098 -3.431445 -3.174890 -7.125000 0.000000 0.000000 70.257155 -10.107860 35.080927 -101.784964 58.011041 -79.180981 0.777843 1.739251 18.900978 7.125000 0.000000 0.000000 
-3.177162 16.191960 -41.754592 -6.700548 -28.040639 7.958367 -8.852931 20.976752 -52.259872 10.542418 21.007627 55.323168 0.829641 2.839057 19.852913 0.002400 -0.314700 -0.864700 3.105318 -0.905675 -1.732869 -1.593870 -8.836400 29.702664 13.921049 -28.669897 -3.361203 -2.859200 10.463600 -30.491400 0.595817 4.677283 -2.850076 -0.237388 2.450410 -3.862375 5.481624 0.114937 11.111165 1.873300 0.217400 5.404200 -72.763811 -14.681477 32.339791 76.138703 -51.890516 -62.280118 -0.279502 -3.428716 -3.171357 -7.125000 0.000000 0.000000 70.206832 -10.125976 35.146447 -101.825598 58.007868 -79.206400 0.779143 1.738085 18.876336 7.125000 0.000000 0.000000 
-3.177511 16.190796 -41.753661 -6.726553 -28.027729 7.976870 -8.825562 20.948665 -52.257948 10.546933 21.010732 55.325981 0.815615 2.868063 19.857692 0.002300 -0.307000 -0.843600 3.128313 -0.915829 -1.740565 -1.596071 -8.841137 29.714144 13.929586 -28.686151 -3.368605 -2.858400 10.462300 -30.487000 0.593043 4.682729 -2.848822 -0.277126 2.451668 -3.836715 5.481322 0.099249 11.109746 1.874000 0.210800 5.410200 -72.732010 -14.727647 32.368739 76.112120 -51.877187 -62.252166 -0.279569 -3.429910 -3.196400 -7.125000 0.000000 0.000000 70.245891 -10.101242 35.103274 -101.816158 58.009402 -79.200747 0.779011 1.737803 18.835595 7.125000 0.000000 0.000000 
-3.178907 16.190447 -41.752381 -6.703547 -28.034474 7.983994 -8.837693 20.939480 -52.264451 10.547054 21.011215 55.328721 0.808379 2.881976 19.860035 0.002400 -0.316700 -0.870200 3.112945 -0.905871 -1.748156 -1.594288 -8.842658 29.728837 13.885633 -28.609013 -3.368704 -2.875800 10.491300 -30.582700 0.592666 4.680263 -2.849286 -0.269620 2.451603 -3.822580 5.480031 0.093658 11.109446 1.867500 0.209200 5.417000 -72.717796 -14.733489 32.374747 76.103717 -51.873737 -62.244061 -0.281343 -3.431855 -3.238248 -7.125000 0.000000 0.000000 70.251230 -10.088632 35.100564 -101.795152 58.011368 -79.186898 0.776537 1.741794 18.782544 7.125000 0.000000 0.000000 
-3.179838 16.189865 -41.751683 -6.707509 -28.022696 7.991207 -8.822779 20.918786 -52.261344 10.550757 21.015336 55.340541 0.806914 2.881146 19.841090 0.002100 -0.296200 -0.814000 3.120576 -0.939943 -1.764123 -1.602015 -8.846138 29.738810 13.911920 -28.655268 -3.372049 -2.874000 10.488300 -30.572800 0.594118 4.675868 -2.847299 -0.288902 2.449608 -3.854797 5.453450 0.081073 11.069929 1.818500 0.206300 5.345900 -72.697354 -14.717283 32.372391 76.149393 -51.889861 -62.287667 -0.282145 -3.430384 -3.298769 -7.125000 0.000000 0.000000 70.265020 -10.087623 35.064570 -101.777676 58.016442 -79.175425 0.765450 1.737111 18.731988 7.125000 0.000000 0.000000 
-3.181235 16.189283 -41.750403 -6.698354 -28.035385 7.991658 -8.827122 20.920202 -52.260065 10.552752 21.013821 55.342265 0.796970 2.903298 19.829897 0.002500 -0.321800 -0.884300 3.112740 -0.924136 -1.773158 -1.604507 -8.849092 29.742847 13.935242 -28.693873 -3.389427 -2.853900 10.454700 -30.462200 0.591925 4.669248 -2.851859 -0.271073 2.446942 -3.842673 5.491382 0.088490 11.104421 1.883100 0.205900 5.407100 -72.687372 -14.737116 32.369738 76.098349 -51.869603 -62.244367 -0.279700 -3.434045 -3.292376 -7.125000 0.000000 0.000000 70.286351 -10.081490 35.104402 -101.759474 58.009396 -79.156016 0.780615 1.741694 18.740779 7.125000 0.000000 0.000000 
-3.182398 16.188818 -41.750171 -6.673526 -28.018492 7.985445 -8.835293 20.893668 -52.258740 10.552782 21.016916 55.349438 0.788431 2.918596 19.825610 0.002300 -0.311700 -0.856400 3.099942 -0.945309 -1.779652 -1.611153 -8.848574 29.747918 13.953664 -28.724861 -3.393175 -2.865000 10.473300 -30.523400 0.589528 4.666130 -2.853119 -0.280335 2.446095 -3.846433 5.497789 0.082026 11.103116 1.888800 0.203400 5.411800 -72.663531 -14.765076 32.386336 76.100922 -51.863630 -62.244947 -0.280152 -3.434023 -3.303266 -7.125000 0.000000 0.000000 70.329787 -10.076811 35.070409 -101.718388 58.010810 -79.126513 0.783162 1.741840 18.742033 7.125000 0.000000 0.000000 
-3.183795 16.188818 -41.748658 -6.664771 -28.024120 7.983647 -8.837337 20.892936 -52.255508 10.556303 21.017844 55.353832 0.776345 2.944604 19.814222 0.002900 -0.349400 -0.960100 3.095515 -0.935390 -1.772160 -1.606893 -8.847515 29.752562 13.917547 -28.662173 -3.394192 -2.839700 10.430900 -30.383600 0.590780 4.656369 -2.854010 -0.260281 2.441997 -3.855444 5.505029 0.084423 11.106031 1.900100 0.203400 5.410900 -72.652244 -14.760264 32.370752 76.106955 -51.865301 -62.254775 -0.281103 -3.435568 -3.300266 -7.125000 0.000000 0.000000 70.327009 -10.077027 35.080610 -101.694833 58.011831 -79.108068 0.779906 1.742474 18.742856 7.125000 0.000000 0.000000 
-3.185540 16.188585 -41.746680 -6.649213 -28.030726 7.987733 -8.847595 20.895088 -52.260313 10.559590 21.020421 55.363040 0.768508 2.959743 19.795229 0.002800 -0.344000 -0.945300 3.081332 -0.942877 -1.779929 -1.612192 -8.845354 29.737244 13.961971 -28.738037 -3.379542 -2.847400 10.443800 -30.426100 0.589696 4.649550 -2.850799 -0.261552 2.439027 -3.825639 5.507565 0.086395 11.104541 1.901800 0.204800 5.401500 -72.620330 -14.797772 32.362708 76.079225 -51.855982 -62.232903 -0.281169 -3.434295 -3.310765 -7.125000 0.000000 0.000000 70.335122 -10.074456 35.078010 -101.705819 58.017073 -79.115001 0.778174 1.745645 18.779521 7.125000 0.000000 0.000000 
-3.186704 16.188934 -41.744352 -6.603507 -28.038975 7.992253 -8.897169 20.905107 -52.286226 10.560308 21.021457 55.371076 0.753069 2.990463 19.780388 0.003400 -0.378600 -1.040300 3.046880 -0.924617 -1.780162 -1.607439 -8.838730 29.725114 13.942091 -28.699451 -3.385763 -2.848200 10.445200 -30.430800 0.587303 4.652832 -2.850692 -0.252880 2.442662 -3.812069 5.507359 0.064513 11.102922 1.900100 0.194500 5.404300 -72.596349 -14.823451 32.376939 76.073524 -51.851039 -62.228441 -0.280382 -3.437296 -3.297711 -7.125000 0.000000 0.000000 70.354611 -10.061369 35.048205 -101.646423 58.021827 -79.072228 0.778806 1.742598 18.839226 7.125000 0.000000 0.000000 
-3.188449 16.188352 -41.742607 -6.652491 -28.025317 8.004852 -8.844513 20.899903 -52.268088 10.568318 21.026032 55.384771 0.764631 2.963509 19.762243 0.003600 -0.385200 -1.058300 3.092355 -0.923007 -1.751609 -1.599754 -8.838170 29.720529 13.939942 -28.698733 -3.409569 -2.835200 10.423400 -30.358800 0.591191 4.643254 -2.846637 -0.243309 2.436079 -3.791137 5.510807 0.080562 11.102234 1.907900 0.201400 5.391000 -72.595144 -14.851869 32.357450 76.069619 -51.850604 -62.228746 -0.281417 -3.438765 -3.257071 -7.125000 0.000000 0.000000 70.329181 -10.030990 35.065471 -101.582373 58.027906 -79.025889 0.779035 1.747379 18.843523 7.125000 0.000000 0.000000 
-3.189613 16.187887 -41.741443 -6.663248 -28.016416 8.022179 -8.836549 20.894433 -52.280529 10.571596 21.028279 55.390381 0.763006 2.965309 19.776924 0.003700 -0.392400 -1.078100 3.104505 -0.919471 -1.745416 -1.592193 -8.834482 29.711111 13.914023 -28.654121 -3.406638 -2.845500 10.440600 -30.415600 0.590496 4.651730 -2.845969 -0.252862 2.439190 -3.766050 5.502686 0.062119 11.112994 1.896200 0.193600 5.419300 -72.560022 -14.895417 32.365022 76.081561 -51.847056 -62.240322 -0.282221 -3.437516 -3.251654 -7.125000 0.000000 0.000000 70.342083 -10.007041 35.032072 -101.543573 58.029685 -79.001055 0.781725 1.746020 18.850506 7.125000 0.000000 0.000000 
-3.191009 16.187771 -41.739582 -6.675578 -28.020625 8.045693 -8.824372 20.895775 -52.287612 10.577998 21.031661 55.406546 0.768401 2.949893 19.771146 0.003500 -0.383600 -1.054100 3.118646 -0.892644 -1.737985 -1.581813 -8.833411 29.703037 13.874714 -28.586799 -3.396074 -2.859300 10.463700 -30.491700 0.588522 4.654224 -2.841100 -0.272162 2.439890 -3.722239 5.509883 0.064886 11.097657 1.904000 0.196000 5.396000 -72.530328 -14.940939 32.367194 76.062462 -51.840752 -62.223369 -0.283856 -3.437652 -3.235748 -7.125000 0.000000 0.000000 70.369095 -9.945028 35.015542 -101.457345 58.035977 -78.935430 0.781675 1.747153 18.853782 7.125000 0.000000 0.000000 
-3.192289 16.186607 -41.736789 -6.672353 -28.017069 8.058705 -8.828243 20.893836 -52.295830 10.582695 21.035138 55.419853 0.762917 2.958319 19.749377 0.004000 -0.407200 -1.118800 3.111320 -0.927443 -1.751207 -1.585598 -8.830461 29.696486 13.889601 -28.611954 -3.389009 -2.825500 10.407100 -30.305500 0.588694 4.644065 -2.839357 -0.279422 2.435259 -3.701560 5.501093 0.065660 11.098208 1.893700 0.196700 5.390000 -72.523732 -14.943042 32.361966 76.066180 -51.844765 -62.227243 -0.284292 -3.435151 -3.239013 -7.125000 0.000000 0.000000 70.351745 -9.968741 35.036878 -101.507662 58.038137 -78.967978 0.782397 1.744352 18.845004 7.125000 0.000000 0.000000 
-3.193569 16.187072 -41.734578 -6.691330 -28.020079 8.088698 -8.812675 20.893099 -52.303276 10.586125 21.036155 55.426970 0.768285 2.944442 19.741481 0.003700 -0.392300 -1.077900 3.126078 -0.917959 -1.757594 -1.579555 -8.831838 29.697427 13.866859 -28.572830 -3.394280 -2.829400 10.413600 -30.326600 0.585709 4.664083 -2.836674 -0.303818 2.443203 -3.666581 5.497279 0.048458 11.094798 1.891800 0.189000 5.393900 -72.490700 -15.048183 32.401301 75.976834 -51.804286 -62.136137 -0.287793 -3.434408 -3.256712 -7.125000 0.000000 0.000000 70.360439 -9.964344 34.989382 -101.504358 58.043950 -78.970143 0.782748 1.742849 18.820254 7.125000 0.000000 0.000000 
